<svg width="348" height="314" viewBox="0 0 348 314" fill="none" xmlns="http://www.w3.org/2000/svg">
<mask id="path-1-inside-1" fill="white">
<path fill-rule="evenodd" clip-rule="evenodd" d="M317.729 0.485229C309.245 0.485229 302.367 7.36282 302.367 15.8468C302.367 22.1111 306.117 27.4997 311.494 29.8905V36.32C311.494 39.0087 313.674 41.1884 316.363 41.1884H321.325C324.014 41.1884 326.193 39.0087 326.193 36.32V29.3422C330.97 26.7373 334.211 21.6705 334.211 15.8468C334.211 7.36282 327.333 0.485229 318.849 0.485229H317.729Z"/>
</mask>
<path fill-rule="evenodd" clip-rule="evenodd" d="M317.729 0.485229C309.245 0.485229 302.367 7.36282 302.367 15.8468C302.367 22.1111 306.117 27.4997 311.494 29.8905V36.32C311.494 39.0087 313.674 41.1884 316.363 41.1884H321.325C324.014 41.1884 326.193 39.0087 326.193 36.32V29.3422C330.97 26.7373 334.211 21.6705 334.211 15.8468C334.211 7.36282 327.333 0.485229 318.849 0.485229H317.729Z" fill="#FFFA8E"/>
<path d="M311.494 29.8905H313.494V28.5909L312.307 28.063L311.494 29.8905ZM326.193 29.3422L325.236 27.5864L324.193 28.1549V29.3422H326.193ZM304.367 15.8468C304.367 8.46739 310.349 2.48523 317.729 2.48523V-1.51477C308.14 -1.51477 300.367 6.25825 300.367 15.8468H304.367ZM312.307 28.063C307.625 25.9816 304.367 21.2924 304.367 15.8468H300.367C300.367 22.9298 304.609 29.0179 310.682 31.718L312.307 28.063ZM313.494 36.32V29.8905H309.494V36.32H313.494ZM316.363 39.1884C314.779 39.1884 313.494 37.9041 313.494 36.32H309.494C309.494 40.1133 312.569 43.1884 316.363 43.1884V39.1884ZM321.325 39.1884H316.363V43.1884H321.325V39.1884ZM324.193 36.32C324.193 37.9041 322.909 39.1884 321.325 39.1884V43.1884C325.118 43.1884 328.193 40.1133 328.193 36.32H324.193ZM324.193 29.3422V36.32H328.193V29.3422H324.193ZM332.211 15.8468C332.211 20.9096 329.396 25.3178 325.236 27.5864L327.151 31.0981C332.544 28.1569 336.211 22.4314 336.211 15.8468H332.211ZM318.849 2.48523C326.228 2.48523 332.211 8.46739 332.211 15.8468H336.211C336.211 6.25825 328.438 -1.51477 318.849 -1.51477V2.48523ZM317.729 2.48523H318.849V-1.51477H317.729V2.48523Z" fill="#2F3036" mask="url(#path-1-inside-1)"/>
<path d="M318.918 37.5871C321.069 37.5218 323.161 36.524 325.62 34.8503C325.131 38.1535 322.284 40.6881 318.844 40.6881C315.427 40.6881 312.594 38.1851 312.079 34.9122C314.618 36.7728 316.752 37.6528 318.918 37.5871Z" fill="#AAAAAA" stroke="#2F3036"/>
<rect x="315.48" y="39.8419" width="6.72642" height="4.22851" rx="0.5" fill="#AAAAAA" stroke="#2F3036"/>
<mask id="path-5-inside-2" fill="white">
<path fill-rule="evenodd" clip-rule="evenodd" d="M301.791 78.0311C299.443 76.7418 298.329 73.8937 299.286 71.3052C300.879 66.9959 302.94 60.2869 303.964 54.2449C304.479 51.2023 304.684 48.5962 304.543 46.6587C304.442 45.2826 304.206 44.7307 304.15 44.6019C304.149 44.5976 304.147 44.5938 304.146 44.5904C301.984 42.6057 301.757 39.2507 303.669 36.9899C305.631 34.6707 309.101 34.381 311.421 36.3428C313.631 38.2122 314.666 40.7876 315.154 43.1755C316.269 43.0445 317.449 42.6773 318.448 42.2921C320.114 41.6498 321.471 40.4388 322.561 39.0237L328.984 30.6826C329.952 29.4256 331.916 29.7342 332.402 31.2445C336.519 44.0511 342.649 69.3124 335.936 88.9082C334.797 92.2325 331.069 93.6703 327.762 92.4831L306.399 84.8147C303.499 83.7737 301.674 81.0001 301.791 78.0311Z"/>
</mask>
<path fill-rule="evenodd" clip-rule="evenodd" d="M301.791 78.0311C299.443 76.7418 298.329 73.8937 299.286 71.3052C300.879 66.9959 302.94 60.2869 303.964 54.2449C304.479 51.2023 304.684 48.5962 304.543 46.6587C304.442 45.2826 304.206 44.7307 304.15 44.6019C304.149 44.5976 304.147 44.5938 304.146 44.5904C301.984 42.6057 301.757 39.2507 303.669 36.9899C305.631 34.6707 309.101 34.381 311.421 36.3428C313.631 38.2122 314.666 40.7876 315.154 43.1755C316.269 43.0445 317.449 42.6773 318.448 42.2921C320.114 41.6498 321.471 40.4388 322.561 39.0237L328.984 30.6826C329.952 29.4256 331.916 29.7342 332.402 31.2445C336.519 44.0511 342.649 69.3124 335.936 88.9082C334.797 92.2325 331.069 93.6703 327.762 92.4831L306.399 84.8147C303.499 83.7737 301.674 81.0001 301.791 78.0311Z" fill="#FFD0D0"/>
<path d="M301.791 78.0311L303.79 78.1103L303.839 76.8735L302.754 76.2779L301.791 78.0311ZM299.286 71.3052L301.162 71.9987L299.286 71.3052ZM303.964 54.2449L305.936 54.5789L303.964 54.2449ZM304.543 46.6587L306.537 46.5133L304.543 46.6587ZM304.15 44.6019L302.312 45.3902L302.312 45.3903L304.15 44.6019ZM304.146 44.5904L305.987 43.8107L305.818 43.4109L305.498 43.1173L304.146 44.5904ZM303.669 36.9899L305.196 38.2815L303.669 36.9899ZM311.421 36.3428L310.129 37.8697L311.421 36.3428ZM315.154 43.1755L313.194 43.5757L313.562 45.3762L315.387 45.1618L315.154 43.1755ZM318.448 42.2921L317.729 40.426L318.448 42.2921ZM322.561 39.0237L324.146 40.2439L324.146 40.2439L322.561 39.0237ZM328.984 30.6826L327.399 29.4624L327.399 29.4624L328.984 30.6826ZM332.402 31.2445L334.306 30.6324L334.306 30.6324L332.402 31.2445ZM335.936 88.9082L337.828 89.5564L335.936 88.9082ZM327.762 92.4831L328.438 90.6007L327.762 92.4831ZM306.399 84.8147L305.723 86.6971L305.723 86.6971L306.399 84.8147ZM302.754 76.2779C301.261 75.4583 300.553 73.6443 301.162 71.9987L297.41 70.6116C296.104 74.1431 297.625 78.0254 300.829 79.7843L302.754 76.2779ZM301.162 71.9987C302.783 67.6144 304.885 60.7806 305.936 54.5789L301.992 53.9108C300.995 59.7932 298.975 66.3773 297.41 70.6116L301.162 71.9987ZM305.936 54.5789C306.463 51.4648 306.695 48.6797 306.537 46.5133L302.548 46.8042C302.673 48.5126 302.495 50.9399 301.992 53.9108L305.936 54.5789ZM306.537 46.5133C306.421 44.9221 306.134 44.1523 305.989 43.8135L302.312 45.3903C302.318 45.4035 302.322 45.4116 302.33 45.4366C302.341 45.4663 302.361 45.529 302.385 45.6314C302.435 45.8374 302.505 46.2099 302.548 46.8042L306.537 46.5133ZM305.989 43.8136C305.988 43.8112 305.987 43.8102 305.987 43.8094C305.986 43.8087 305.987 43.8093 305.987 43.8107L302.304 45.3701C302.307 45.3787 302.311 45.3871 302.312 45.3902L305.989 43.8136ZM305.498 43.1173C304.124 41.8553 303.98 39.7199 305.196 38.2815L302.142 35.6982C299.534 38.7816 299.844 43.3561 302.793 46.0635L305.498 43.1173ZM305.196 38.2815C306.445 36.8057 308.653 36.6213 310.129 37.8697L312.712 34.8158C309.55 32.1407 304.818 32.5358 302.142 35.6982L305.196 38.2815ZM310.129 37.8697C311.868 39.3404 312.755 41.4281 313.194 43.5757L317.113 42.7753C316.576 40.1471 315.394 37.0839 312.712 34.8158L310.129 37.8697ZM315.387 45.1618C316.739 45.003 318.096 44.571 319.167 44.1583L317.729 40.426C316.801 40.7835 315.798 41.086 314.92 41.1891L315.387 45.1618ZM319.167 44.1583C321.283 43.343 322.914 41.8433 324.146 40.2439L320.976 37.8035C320.029 39.0344 318.946 39.9567 317.729 40.426L319.167 44.1583ZM324.146 40.2439L330.568 31.9028L327.399 29.4624L320.976 37.8035L324.146 40.2439ZM330.568 31.9028C330.577 31.8919 330.58 31.89 330.578 31.892C330.575 31.8938 330.571 31.8962 330.566 31.8979C330.558 31.901 330.555 31.9002 330.554 31.9001C330.553 31.9 330.541 31.8979 330.523 31.8829C330.514 31.8751 330.506 31.8662 330.5 31.8577C330.494 31.849 330.494 31.8469 330.498 31.8567L334.306 30.6324C333.305 27.5215 329.307 26.9841 327.399 29.4624L330.568 31.9028ZM330.498 31.8567C332.531 38.1822 335.056 47.5661 336.244 57.7619C337.435 67.9809 337.264 78.8592 334.044 88.26L337.828 89.5564C341.32 79.3614 341.442 67.8112 340.217 57.2989C338.989 46.7635 336.389 37.1135 334.306 30.6324L330.498 31.8567ZM334.044 88.26C333.326 90.3554 330.876 91.4758 328.438 90.6007L327.086 94.3655C331.263 95.8649 336.268 94.1096 337.828 89.5564L334.044 88.26ZM328.438 90.6007L307.075 82.9323L305.723 86.6971L327.086 94.3655L328.438 90.6007ZM307.075 82.9323C304.999 82.1872 303.707 80.2096 303.79 78.1103L299.793 77.9519C299.641 81.7906 301.999 85.3601 305.723 86.6971L307.075 82.9323Z" fill="#2F3036" mask="url(#path-5-inside-2)"/>
<path fill-rule="evenodd" clip-rule="evenodd" d="M208.822 165.177C215.971 163.709 223.11 162.006 230.163 160.042C278.164 146.675 330.422 118.61 344.754 61.1286L297.21 49.2739C289.484 80.2609 260.028 100.861 217.018 112.838C208.895 115.101 200.579 116.963 192.249 118.479C178.041 94.138 156.096 79.4464 123.867 79.4464C30.0856 79.4464 1.31201 145.93 1.31201 230.362L1.31203 312.84H214.45V230.362C214.45 206.9 212.749 184.825 208.822 165.177Z" fill="#FB827A"/>
<path d="M230.163 160.042L230.431 161.006L230.163 160.042ZM208.822 165.177L208.621 164.197L207.647 164.397L207.842 165.373L208.822 165.177ZM344.754 61.1286L345.724 61.3705L345.966 60.4002L344.996 60.1583L344.754 61.1286ZM297.21 49.2739L297.452 48.3036L296.481 48.0617L296.239 49.032L297.21 49.2739ZM217.018 112.838L216.749 111.875L217.018 112.838ZM192.249 118.479L191.386 118.983L191.739 119.589L192.428 119.463L192.249 118.479ZM123.867 79.4464V78.4464V78.4464V79.4464ZM1.31201 230.362H0.312012H1.31201ZM1.31203 312.84H0.312033L0.312033 313.84H1.31203V312.84ZM214.45 312.84V313.84H215.45V312.84H214.45ZM229.894 159.079C222.865 161.036 215.749 162.734 208.621 164.197L209.023 166.156C216.192 164.684 223.354 162.976 230.431 161.006L229.894 159.079ZM343.784 60.8866C329.587 117.826 277.797 145.74 229.894 159.079L230.431 161.006C278.531 147.611 331.257 119.394 345.724 61.3705L343.784 60.8866ZM296.968 50.2442L344.512 62.0989L344.996 60.1583L297.452 48.3036L296.968 50.2442ZM217.286 113.802C260.403 101.795 290.32 81.0407 298.18 49.5159L296.239 49.032C288.647 79.481 259.654 99.9275 216.749 111.875L217.286 113.802ZM192.428 119.463C200.784 117.942 209.13 116.073 217.286 113.802L216.749 111.875C208.659 114.128 200.374 115.984 192.07 117.495L192.428 119.463ZM193.113 117.975C178.738 93.3475 156.475 78.4464 123.867 78.4464V80.4464C155.717 80.4464 177.345 94.9285 191.386 118.983L193.113 117.975ZM123.867 78.4464C76.7078 78.4464 45.735 95.1828 26.6008 122.671C7.51345 150.092 0.312012 188.064 0.312012 230.362H2.31201C2.31201 188.228 9.49735 150.743 28.2423 123.814C46.9403 96.952 77.2452 80.4464 123.867 80.4464V78.4464ZM0.312012 230.362L0.312033 312.84H2.31203L2.31201 230.362H0.312012ZM1.31203 313.84H214.45V311.84H1.31203V313.84ZM215.45 312.84V230.362H213.45V312.84H215.45ZM215.45 230.362C215.45 206.856 213.746 184.712 209.803 164.981L207.842 165.373C211.752 184.938 213.45 206.945 213.45 230.362H215.45Z" fill="#2F3036"/>
<path d="M153.139 100.14C159.284 97.8089 159.616 93.36 160.623 88.7877L157.38 86.4795C154.126 88.2619 146.708 91.3074 142.989 93.3533C139.269 95.3992 132.986 87.3928 121.204 93.3533C127.317 96.6877 147.908 102.124 153.139 100.14Z" fill="#FFC1BD" stroke="#2F3036" stroke-width="2"/>
<path d="M168.467 48.2561C174.129 68.3564 162.845 89.0759 143.33 94.5731C123.816 100.07 103.375 88.2881 97.713 68.1877C92.0506 48.0874 103.335 27.3679 122.85 21.8707C142.364 16.3734 162.805 28.1557 168.467 48.2561Z" fill="#FFD0D0" stroke="#2F3036" stroke-width="2"/>
<path d="M164.816 169.33C172.603 169.907 196.422 165.074 207.478 163.872C209.367 173.248 210.096 178.542 211.292 187.996C192.425 181.507 157.029 168.753 164.816 169.33Z" fill="#EC7068"/>
<path d="M108.264 23.7792C108.264 22.1162 109.293 20.6155 110.868 20.0835C126.234 14.8957 139.625 15.9328 155.918 17.6717C157.293 17.8185 158.495 18.6677 159.095 19.914L163.66 29.4065C165.109 32.4202 162.395 35.9143 159.053 35.8C142.359 35.229 130.258 44.2005 110.933 38.3487C109.321 37.8606 108.264 36.3391 108.264 34.6551V23.7792Z" fill="#2F3036"/>
<path d="M97.2925 59.0087C95.0833 59.0087 93.2925 57.2178 93.2925 55.0087L93.2925 28.0751C93.2925 26.2927 94.4718 24.7254 96.1844 24.2316L113.727 19.174L106.098 55.8239C105.712 57.679 104.077 59.0087 102.182 59.0087L97.2925 59.0087Z" fill="#2F3036"/>
</svg>
