<svg width="199" height="215" viewBox="0 0 199 215" fill="none" xmlns="http://www.w3.org/2000/svg">
<circle cx="99.7715" cy="115.676" r="98.207" fill="#FCFACB" stroke="#2F3036" stroke-width="2"/>
<rect x="84.9612" y="106.463" width="29.6195" height="54.5028" rx="14.8098" fill="#DDB9B9" stroke="#2F3036" stroke-width="2"/>
<path d="M103.293 113.479C103.293 112.108 104.406 110.996 105.777 110.996C107.149 110.996 108.261 112.108 108.261 113.479V165.015C108.261 166.386 107.149 167.498 105.777 167.498C104.406 167.498 103.293 166.386 103.293 165.015V113.479Z" fill="#CBA4A4"/>
<circle cx="99.771" cy="82.5366" r="43.0713" fill="#DDB9B9" stroke="#2F3036" stroke-width="2"/>
<path d="M101.425 41.4884C106.916 41.4884 112.352 42.541 117.425 44.586C122.498 46.6309 127.107 49.6283 130.99 53.407C134.872 57.1856 137.952 61.6715 140.053 66.6085C142.154 71.5456 143.236 76.8371 143.236 82.1809C143.236 87.5247 142.154 92.8161 140.053 97.7532C137.952 102.69 134.872 107.176 130.99 110.955C127.107 114.733 122.498 117.731 117.425 119.776C112.352 121.821 106.916 122.873 101.425 122.873C129.056 100.969 117.425 55.9752 101.425 41.4884Z" fill="#CBA4A4"/>
<circle cx="99.771" cy="82.5366" r="43.0713" stroke="#2F3036" stroke-width="2"/>
<rect x="73.8396" y="1.21655" width="51.8626" height="49.0985" fill="#867395" stroke="#2F3036" stroke-width="2"/>
<rect x="43.1326" y="1.2168" width="113.277" height="4.21251" fill="#867395" stroke="#2F3036" stroke-width="2"/>
<rect x="74.8213" y="5.61084" width="49.8284" height="5.38927" fill="#79608C"/>
<mask id="mask0" mask-type="alpha" maskUnits="userSpaceOnUse" x="2" y="18" width="195" height="195">
<circle cx="99.7715" cy="115.676" r="97.207" fill="#C79B9B"/>
</mask>
<g mask="url(#mask0)">
<path d="M36.5337 169.054C36.5337 149.993 53.5907 135.626 72.6518 137.526C93.2612 139.58 111.37 139.799 131.758 137.888C151.101 136.075 168.582 150.504 168.582 169.803V231.579C168.582 248.7 154.703 262.579 137.582 262.579H67.5337C50.4129 262.579 36.5337 248.7 36.5337 231.579V169.054Z" fill="#867395" stroke="#2F3036" stroke-width="2"/>
<mask id="mask1" mask-type="alpha" maskUnits="userSpaceOnUse" x="35" y="136" width="135" height="128">
<path d="M36.5337 169.054C36.5337 149.993 53.5907 135.626 72.6518 137.526C93.2612 139.58 111.37 139.799 131.758 137.888C151.101 136.075 168.582 150.504 168.582 169.803V231.579C168.582 248.7 154.703 262.579 137.582 262.579H67.5337C50.4129 262.579 36.5337 248.7 36.5337 231.579V169.054Z" fill="#476377" stroke="black" stroke-width="2"/>
</mask>
<g mask="url(#mask1)">
<path d="M104.269 141.458H170.379V238.978H126.184C131.297 180.904 116.688 152.05 104.269 141.458Z" fill="#79608C"/>
<path d="M36.5337 169.054C36.5337 149.993 53.5907 135.626 72.6518 137.526C93.2612 139.58 111.37 139.799 131.758 137.888C151.101 136.075 168.582 150.504 168.582 169.803V231.579C168.582 248.7 154.703 262.579 137.582 262.579H67.5337C50.4129 262.579 36.5337 248.7 36.5337 231.579V169.054Z" stroke="#2F3036" stroke-width="2"/>
</g>
</g>
<rect x="141.798" y="1.21655" width="2.87544" height="39.2718" fill="#867395"/>
<rect x="141.798" y="1.21655" width="2.87544" height="39.2718" stroke="#867395" stroke-width="2"/>
<rect x="141.798" y="1.21655" width="2.87544" height="39.2718" stroke="#2F3036" stroke-width="2"/>
<rect x="140.798" y="0.216553" width="4.87544" height="3.07631" fill="#79608C"/>
</svg>
