<svg width="155" height="131" viewBox="0 0 155 131" fill="none" xmlns="http://www.w3.org/2000/svg">
<path d="M141.149 53.8571C145.469 53.3586 154.774 73.9618 144.804 79.2788C140.797 81.4162 137.38 79.2841 133.528 76.6499C126.162 87.9994 120.174 90.8405 105.814 88.9726C108.955 101.023 120.548 116.468 128.521 125.304L113.364 128.662C112.863 123.141 96.1743 99.1752 93.4138 96.6657C90.6534 94.1562 82.9205 91.5575 72.757 94.0671C64.743 96.0458 59.7757 88.3839 58.521 86.0835C40.2903 92.8561 12.6389 77.7682 20.5475 68.4588C16.9087 68.8353 5.06806 68.4588 2.68228 60.5605C-1.27001 47.4762 13.8477 38.7417 18.1285 34.0534C21.8401 29.9885 25.127 23.6407 26.4099 20.0002C30.124 9.46023 39.7597 2.4344 49.1209 2.43359C58.4821 2.43279 71.1727 5.12677 87.6377 16.2549C121.14 5.33835 133.19 26.9019 135.323 33.803C137.029 39.3239 139.918 49.4728 141.149 53.8571Z" fill="#FFACAC"/>
<path d="M130.48 73.1004C130.208 72.9332 130.013 72.7515 129.912 72.5558L130.48 73.1004C132.656 74.4366 139.766 74.8381 143.282 73.9505C147.237 72.9519 148.674 68.2199 149.648 66.9601L149.648 76.7522L144.826 81.3105L138.525 80.8117L130.48 73.1004Z" fill="#E29999"/>
<path fill-rule="evenodd" clip-rule="evenodd" d="M106.887 88.9726C121.247 90.8405 127.236 87.9994 134.601 76.6499C134.426 76.5299 134.25 76.4088 134.072 76.2871C128.458 72.434 121.843 67.8939 111.151 73.9618C105.965 76.9055 105.184 82.4403 106.887 88.9726ZM58.4798 87.2733C58.724 87.7714 58.9737 88.3348 59.23 88.9726C58.9733 88.4132 58.716 87.845 58.4798 87.2733Z" fill="#C9B8B8"/>
<path d="M49.2287 76.9621C39.5148 76.9621 24.7663 75.657 24.1569 68.1155L19.9031 71.9719L25.7795 81.7048L37.8998 88.1322L57.1819 86.8467L62.8748 92.5396L77.1987 94.0087L92.6244 96.396L113.869 129.087L128.817 125.691L116.13 107.598C113.621 103.068 110.08 91.3917 106.765 89.785C101.039 87.0104 115.886 69.5318 113.869 71.9459C109.768 75.2892 85.203 82.4555 71.7569 75.3232C63.723 71.0618 58.9426 76.9621 49.2287 76.9621Z" fill="#E29999"/>
<path d="M129.595 125.304C121.622 116.468 110.029 101.023 106.888 88.9726M142.223 53.8571C146.543 53.3586 155.848 73.9618 145.878 79.2788C141.871 81.4162 138.454 79.2841 134.602 76.6499M142.223 53.8571C141.558 55.5186 136.647 59.0182 130.925 57.6786M142.223 53.8571C140.992 49.4728 138.103 39.3239 136.397 33.803C134.264 26.9019 122.214 5.33835 88.7116 16.2549M88.7116 16.2549C93.2953 19.0966 96.415 19.8805 98.5751 26.2891M88.7116 16.2549C72.2467 5.12677 59.5561 2.43279 50.1949 2.43359C40.8337 2.4344 31.1979 9.46023 27.4839 20.0002C26.201 23.6407 22.9141 29.9885 19.2025 34.0534C14.9217 38.7417 -0.196034 47.4762 3.75625 60.5605C6.14204 68.4588 17.9827 68.8353 21.6214 68.4588C13.7129 77.7682 41.3643 92.8561 59.5949 86.0835C60.8497 88.3839 65.817 96.0458 73.831 94.0671C83.9945 91.5575 91.7273 94.1562 94.4878 96.6657C97.2483 99.1752 113.937 123.141 114.438 128.662M134.602 76.6499C128.872 72.7315 122.181 67.7022 111.152 73.9618C105.965 76.9056 105.185 82.4403 106.888 88.9726M134.602 76.6499C127.236 87.9994 121.248 90.8405 106.888 88.9726" stroke="#2F3036" stroke-width="4" stroke-linecap="round" stroke-linejoin="round"/>
<ellipse cx="63.2017" cy="37.2044" rx="3.22811" ry="4.31983" fill="#2F3036"/>
<ellipse cx="43.9312" cy="37.2044" rx="3.23274" ry="4.31983" fill="#2F3036"/>
<path d="M62.1939 52.876C62.1939 55.2978 61.2318 57.6204 59.5193 59.3328C57.8069 61.0453 55.4843 62.0073 53.0625 62.0073C50.6407 62.0073 48.3181 61.0453 46.6057 59.3328C44.8932 57.6204 43.9312 55.2978 43.9312 52.876" stroke="#2F3036" stroke-width="4" stroke-linecap="round"/>
</svg>
